<svg width="336" height="330" viewBox="0 0 336 330" fill="none" xmlns="http://www.w3.org/2000/svg">
<rect x="201.5" y="64.5096" width="55" height="261" fill="#FFF89A" stroke="#625D5D" stroke-width="5"/>
<line x1="1.52588e-05" y1="64.5096" x2="336" y2="64.5096" stroke="#625D5D" stroke-width="5"/>
<line x1="1.52588e-05" y1="326.51" x2="336" y2="326.51" stroke="#625D5D" stroke-width="5"/>
<rect x="46.5" y="64.5096" width="55" height="261" fill="#FFB3B3" stroke="#625D5D" stroke-width="5"/>
<rect x="251.5" y="64.5096" width="55" height="261" fill="#DAEAF1" stroke="#625D5D" stroke-width="5"/>
<path d="M105 323.01H156.871L200 67.0096H151.626L105 323.01Z" fill="#9ADCFF" stroke="#625D5D" stroke-width="5"/>
<mask id="path-7-inside-1_3_2" fill="white">
<path fill-rule="evenodd" clip-rule="evenodd" d="M0 54.0193H308.99C323.907 54.0193 336 41.9267 336 27.0096C336 12.0926 323.907 0 308.99 0H1.52588e-05C14.917 0 27.0097 12.0926 27.0097 27.0096C27.0097 41.9267 14.917 54.0193 0 54.0193Z"/>
</mask>
<path fill-rule="evenodd" clip-rule="evenodd" d="M0 54.0193H308.99C323.907 54.0193 336 41.9267 336 27.0096C336 12.0926 323.907 0 308.99 0H1.52588e-05C14.917 0 27.0097 12.0926 27.0097 27.0096C27.0097 41.9267 14.917 54.0193 0 54.0193Z" fill="#F2D388"/>
<path d="M308.99 49.0193H0V59.0193H308.99V49.0193ZM331 27.0096C331 39.1652 321.146 49.0193 308.99 49.0193V59.0193C326.669 59.0193 341 44.6881 341 27.0096H331ZM308.99 5C321.146 5 331 14.8541 331 27.0096H341C341 9.33121 326.669 -5 308.99 -5V5ZM1.52588e-05 5H308.99V-5H1.52588e-05V5ZM1.52588e-05 5C12.1556 5 22.0097 14.8541 22.0097 27.0096H32.0097C32.0097 9.33121 17.6785 -5 1.52588e-05 -5V5ZM22.0097 27.0096C22.0097 39.1652 12.1556 49.0193 0 49.0193V59.0193C17.6785 59.0193 32.0097 44.6881 32.0097 27.0096H22.0097Z" fill="#625D5D" mask="url(#path-7-inside-1_3_2)"/>
</svg>
